<?xml version="1.0" encoding="utf-8"?>
<!-- Generator: Adobe Illustrator 24.0.0, SVG Export Plug-In . SVG Version: 6.00 Build 0)  -->
<svg version="1.1" id="Слой_1" xmlns="http://www.w3.org/2000/svg" xmlns:xlink="http://www.w3.org/1999/xlink" x="0px" y="0px"
	 viewBox="0 0 533 80" style="enable-background:new 0 0 533 80;" xml:space="preserve">
<style type="text/css">
	.st0{fill:#B50404;}
</style>
<path d="M5.38,73.68c-0.27-0.27-0.51-0.59-0.71-0.96c-0.2-0.37-0.37-0.86-0.51-1.47c-0.95-1.15-1.69-2.47-2.23-3.95
	c-0.54-1.49-0.91-3.02-1.12-4.61c-0.2-1.59-0.24-3.19-0.1-4.82c0.13-1.62,0.37-3.14,0.71-4.56c0.2-0.67,0.37-1.38,0.51-2.13
	c0.34-1.28,0.67-2.55,1.01-3.8c0.34-1.25,0.84-2.28,1.52-3.09c-0.27-0.74-0.24-1.55,0.1-2.43c0.34-0.88,0.67-1.69,1.01-2.43
	c0.13-0.2,0.24-0.39,0.3-0.56c0.07-0.17,0.13-0.32,0.2-0.46c0.81-2.36,1.6-4.65,2.38-6.84c0.78-2.2,1.54-4.31,2.28-6.34
	c1.35-3.72,2.65-7.37,3.9-10.95c1.25-3.58,2.38-7.4,3.4-11.46c0.54-0.41,1.01-0.67,1.42-0.81c0.13-0.07,0.3-0.13,0.51-0.2
	c0.2-0.07,0.44-0.1,0.71-0.1c1.42,0.74,3.09,1.44,5.02,2.08c1.93,0.64,3.56,0.96,4.92,0.96l1.72,1.52c0.88,1.01,1.64,2.08,2.28,3.19
	c0.64,1.12,0.83,2.55,0.56,4.31c-0.41,0.61-0.74,0.98-1.01,1.12c-0.41,1.56-0.85,2.92-1.32,4.11c-0.47,1.18-0.95,2.32-1.42,3.4
	c-0.54,1.22-1.05,2.43-1.52,3.65c-0.47,1.22-0.88,2.7-1.22,4.46c-0.41,0.47-0.66,0.88-0.76,1.22c-0.1,0.34-0.22,0.68-0.35,1.01
	c-0.14,0.41-0.3,0.83-0.51,1.27c-0.2,0.44-0.51,0.83-0.91,1.17c-0.27,2.1-0.68,3.8-1.22,5.12c-0.54,1.32-1.08,2.62-1.62,3.9
	c-0.95,2.37-1.82,4.71-2.64,7.05c-0.81,2.33-1.28,4.99-1.42,7.96c0.81-0.2,1.55-0.3,2.23-0.3c0.88,0,1.72,0.14,2.53,0.41
	c2.43-1.22,5.08-1.96,7.96-2.23c2.87-0.27,5.73-0.44,8.57-0.51c2.36,0,4.56-0.1,6.59-0.3c0.67,0.47,1.12,0.73,1.32,0.76
	c0.2,0.04,0.54,0.05,1.01,0.05c0.2,0,0.41,0,0.61,0s0.47,0.04,0.81,0.1c0.95,0.95,1.86,1.61,2.74,1.98
	c0.88,0.37,1.82,0.73,2.84,1.06c0.88,0.34,1.74,0.69,2.59,1.06c0.84,0.37,1.67,0.86,2.48,1.47l0.91,5.17
	c0.54,0.74,0.78,1.25,0.71,1.52c0,0.54-0.14,1.01-0.41,1.42l0.2,1.32c-1.28,0.27-2.13,0.56-2.53,0.86c-0.41,0.3-0.85,0.69-1.32,1.17
	c-0.74,0.07-1.45,0.1-2.13,0.1c-1.35,0-2.74,0.2-4.16,0.61c-2.03-0.74-4.26-1.12-6.69-1.12c-0.95,0-1.91,0.04-2.89,0.1
	c-0.98,0.07-1.94,0.17-2.89,0.3c-1.01,0.14-2.03,0.25-3.04,0.35c-1.01,0.1-2.03,0.15-3.04,0.15c-0.81,0.14-1.39,0.24-1.72,0.3
	c-0.34,0.07-0.68,0.17-1.01,0.3c-2.3,0.74-4.78,1.49-7.45,2.23c-2.67,0.74-5.36,1.12-8.06,1.12c-3.99,0-7.2-1.01-9.63-3.04
	c-0.27-0.61-0.47-1.01-0.61-1.22C5.65,74.18,5.51,73.95,5.38,73.68z"/>
<path d="M70.97,73.98c-0.54-0.54-0.93-1.18-1.17-1.93c-0.24-0.74-0.79-1.35-1.67-1.83c-0.14-1.01-0.32-2.18-0.56-3.5
	c-0.24-1.32-0.47-2.67-0.71-4.05c-0.24-1.38-0.41-2.77-0.51-4.16c-0.1-1.38-0.05-2.65,0.15-3.8c0.13-0.61,0.35-1.18,0.66-1.72
	c0.3-0.54,0.61-1.06,0.91-1.57c0.3-0.51,0.54-1.03,0.71-1.57c0.17-0.54,0.19-1.08,0.05-1.62c0.41-0.07,0.66-0.29,0.76-0.66
	c0.1-0.37,0.42-0.49,0.96-0.35c0.47-1.49,0.98-2.87,1.52-4.16c0.54-1.28,1.11-2.53,1.72-3.75c0.61-1.22,1.23-2.45,1.88-3.7
	c0.64-1.25,1.23-2.65,1.77-4.21c-1.15-1.08-1.98-2.25-2.48-3.5c-0.51-1.25-0.9-2.52-1.17-3.8c-0.27-1.28-0.47-2.58-0.61-3.9
	c-0.14-1.32-0.41-2.65-0.81-4c0.81-1.22,1.79-2.21,2.94-2.99c1.15-0.78,2.42-1.42,3.8-1.93c1.38-0.51,2.89-0.91,4.51-1.22
	S86.99,9.4,88.81,9c3.24-1.01,6.15-1.81,8.72-2.38c2.57-0.57,5.07-1.05,7.5-1.42c2.43-0.37,4.97-0.71,7.6-1.01s5.68-0.76,9.12-1.37
	c0.07,0.2,0.19,0.3,0.35,0.3c0.17,0,0.39,0,0.66,0c0.2,0.47,0.57,0.71,1.12,0.71c0-0.2-0.02-0.39-0.05-0.56
	c-0.03-0.17-0.05-0.32-0.05-0.46c0.13,0,0.32,0.03,0.56,0.1c0.24,0.07,0.44,0.14,0.61,0.2c0.17,0.07,0.32,0.05,0.46-0.05
	c0.13-0.1,0.17-0.32,0.1-0.66c0.81,1.42,1.86,2.58,3.14,3.5c1.28,0.91,2.7,1.71,4.26,2.38c0.07,0.61,0.08,1.05,0.05,1.32
	c-0.03,0.27-0.09,0.52-0.15,0.76c-0.07,0.24-0.1,0.51-0.1,0.81s0.07,0.73,0.2,1.27c-1.08,1.82-2.32,3.24-3.7,4.26
	c-1.39,1.01-2.86,1.79-4.41,2.33c-1.56,0.54-3.19,0.95-4.92,1.22c-1.72,0.27-3.48,0.56-5.27,0.86c-1.79,0.3-3.6,0.73-5.42,1.27
	c-1.82,0.54-3.62,1.35-5.37,2.43c-0.54-0.2-1.03-0.29-1.47-0.25c-0.44,0.03-0.9,0.12-1.37,0.25c-0.47,0.14-1,0.27-1.57,0.41
	c-0.57,0.14-1.27,0.14-2.08,0c-0.54,0.47-1.17,0.81-1.88,1.01c-0.71,0.2-1.44,0.41-2.18,0.61c0.34,0.74,0.49,1.49,0.46,2.23
	c-0.04,0.74,0.05,1.39,0.25,1.93c2.84,0.27,5.98,0.25,9.43-0.05c3.45-0.3,6.83-0.52,10.14-0.66c0.07,0.34,0.03,0.58-0.1,0.71
	c-0.14,0.14-0.2,0.37-0.2,0.71c0.61,0.41,1.18,0.91,1.72,1.52c0.54,0.61,1.1,1.2,1.67,1.77c0.57,0.57,1.17,1.05,1.77,1.42
	c0.61,0.37,1.32,0.52,2.13,0.46c0.34,0.68,0.57,1.39,0.71,2.13c0.13,0.74,0.03,1.52-0.3,2.33c-1.35,0.88-2.67,1.77-3.95,2.69
	c-1.28,0.91-2.62,1.74-4,2.48c-1.39,0.74-2.89,1.35-4.51,1.82c-1.62,0.47-3.38,0.68-5.27,0.61c-0.34,0-0.63,0-0.86,0
	c-0.24,0-0.52-0.13-0.86-0.41c-0.68,0.34-1.57,0.46-2.69,0.35c-1.12-0.1-2.04,0.02-2.79,0.35c-0.95-0.34-2.04-0.51-3.29-0.51
	c-1.25,0-2.35-0.17-3.29-0.51c-1.22,1.76-2.37,3.6-3.45,5.53c-1.08,1.93-2.03,3.97-2.84,6.13c2.77,0.41,5.07,0.58,6.89,0.51
	c1.83-0.07,3.55-0.2,5.17-0.41c1.62-0.2,3.29-0.41,5.02-0.61c1.72-0.2,3.83-0.27,6.34-0.2c1.69-0.81,3.63-1.37,5.83-1.67
	c2.2-0.3,4.24-0.76,6.13-1.37c0.67,0.2,1.25,0.59,1.72,1.17c0.47,0.57,0.93,1.15,1.37,1.72c0.44,0.58,0.9,1.06,1.37,1.47
	c0.47,0.41,1.08,0.54,1.82,0.41c0.34,0.34,0.56,0.74,0.66,1.22c0.1,0.47,0.2,0.91,0.3,1.32c0.1,0.41,0.25,0.73,0.46,0.96
	c0.2,0.24,0.57,0.32,1.12,0.25c-1.28,2.64-2.72,4.66-4.31,6.08c-1.59,1.42-3.38,2.52-5.37,3.29c-1.99,0.78-4.22,1.35-6.69,1.72
	c-2.47,0.37-5.22,0.83-8.26,1.37c-0.74,0.14-1.37,0.12-1.88-0.05c-0.51-0.17-1.03-0.25-1.57-0.25c-1.89,0.34-4.14,0.67-6.74,1.01
	c-2.6,0.34-5.22,0.47-7.86,0.41c-2.64-0.07-5.17-0.41-7.6-1.01C74.62,76.62,72.59,75.54,70.97,73.98z"/>
<path d="M127.74,67.8l1.32-1.01l0.1-2.13c1.69-4.12,3.43-8.08,5.22-11.86c1.79-3.78,3.67-7.67,5.63-11.66
	c0.61-1.28,1.23-2.57,1.88-3.85c0.64-1.28,1.27-2.6,1.88-3.95c-0.07-0.27-0.1-0.56-0.1-0.86s0.07-0.66,0.2-1.06
	c0.95-1.35,1.71-2.57,2.28-3.65c0.57-1.08,1.13-2.2,1.67-3.35c0.61-1.35,1.27-2.7,1.98-4.06c0.71-1.35,1.6-2.67,2.69-3.95l0.71-1.01
	l1.12,0.1c0.27-0.13,0.56-0.25,0.86-0.35s0.69-0.15,1.17-0.15l1.82,0.3c2.23-1.01,4.21-2.48,5.93-4.41
	c1.72-1.93,3.46-4.24,5.22-6.94l1.22-1.72l1.62,1.01c0.34,0.2,0.88,0.41,1.62,0.61c0.74,0.2,1.52,0.44,2.33,0.71
	c1.42,0.34,2.8,0.73,4.16,1.17c1.35,0.44,2.4,1.03,3.14,1.77l0.51,0.91c0.13,0.74,0.25,1.42,0.35,2.03c0.1,0.61,0.22,1.22,0.35,1.82
	c0.27,1.42,0.51,2.82,0.71,4.21c0.2,1.39,0.34,2.92,0.41,4.61c0.34,1.35,0.66,2.72,0.96,4.11c0.3,1.39,0.59,2.75,0.86,4.11
	c0.34,1.96,0.71,3.84,1.12,5.63c0.41,1.79,0.95,3.5,1.62,5.12c0.67,0,1.08,0.03,1.22,0.1c0.81-0.34,1.76-0.54,2.84-0.61l1.32-0.1
	l0.41,1.22c0.13,0.2,0.3,0.41,0.51,0.61c0.2,0.2,0.44,0.41,0.71,0.61c1.08,0.07,1.88,0.29,2.38,0.66c0.51,0.37,0.93,0.73,1.27,1.06
	c0.13,0.14,0.3,0.29,0.51,0.46c0.2,0.17,0.37,0.29,0.51,0.35l1.82,0.71l-1.01,1.93c-0.74,1.42-1.88,2.81-3.4,4.16
	c-1.52,1.35-3.23,2.47-5.12,3.35c0.13,0.47,0.22,0.91,0.25,1.32c0.03,0.41,0.12,0.88,0.25,1.42c0.27,1.35,0.49,2.75,0.66,4.21
	c0.17,1.45,0.15,2.96-0.05,4.51c-0.68,1.76-1.47,3.33-2.38,4.71c-0.91,1.39-1.99,2.64-3.24,3.75c-1.25,1.12-2.65,2.03-4.21,2.74
	c-1.56,0.71-3.18,1.1-4.87,1.17c-0.95-0.2-1.64-0.44-2.08-0.71c-0.44-0.27-0.83-0.54-1.17-0.81c-0.54-0.41-0.98-0.67-1.32-0.81
	l-1.32-0.61l0.41-1.52c0.2-0.54,0.19-1.01-0.05-1.42c-0.24-0.41-0.73-0.95-1.47-1.62c-0.27-0.2-0.51-0.42-0.71-0.66
	c-0.2-0.24-0.44-0.49-0.71-0.76l-2.03-2.33l3.35-0.91c2.03-0.54,3.38-1.23,4.06-2.08c0.67-0.84,0.95-2.35,0.81-4.51
	c-1.69-0.34-3.08-0.39-4.16-0.15c-1.08,0.24-2.16,0.49-3.24,0.76c-1.56,0.41-3.08,0.76-4.56,1.06c-1.49,0.3-3.11,0.46-4.87,0.46
	c-1.15,0-2.37-0.1-3.65-0.3l-1.12-0.1l-0.3-1.12c0-0.13-0.09-0.29-0.25-0.46c-0.17-0.17-0.32-0.32-0.46-0.46
	c-0.34-0.41-0.74-0.95-1.22-1.62c-0.47-0.67-0.57-1.52-0.3-2.54c-0.47-0.74-0.74-1.52-0.81-2.33c-0.27,0.54-0.49,1.06-0.66,1.57
	c-0.17,0.51-0.32,1-0.46,1.47l-0.41,1.32l-1.32,0.2c-0.14,0.14-0.25,0.34-0.35,0.61c-0.1,0.27-0.12,0.47-0.05,0.61l0.41,1.12
	l-1.01,0.91c-0.14,0.2-0.3,0.37-0.51,0.51c-0.2,0.14-0.37,0.27-0.51,0.41c-0.14,0.74-0.32,1.45-0.56,2.13
	c-0.24,0.68-0.49,1.35-0.76,2.03c-0.34,1.08-0.66,2.13-0.96,3.14s-0.46,2.03-0.46,3.04l-0.41,1.32c-0.34,0.54-0.76,0.95-1.27,1.22
	c-0.51,0.27-1,0.51-1.47,0.71c-0.68,0.27-1.15,0.54-1.42,0.81l-0.3,1.32l-1.52,0.2c-0.88,0.2-1.5,0.34-1.88,0.41
	c-0.37,0.07-0.8,0.1-1.27,0.1l-1.32-0.1c-0.81-0.81-1.47-1.43-1.98-1.88c-0.51-0.44-1.1-0.83-1.77-1.17l-0.61-0.81
	c-0.27-0.54-0.44-1.03-0.51-1.47c-0.07-0.44-0.17-0.89-0.3-1.37c-0.13-0.88-0.34-1.49-0.61-1.83L127.74,67.8z M160.08,41.44
	c-0.95,1.35-1.86,2.77-2.74,4.26c0.47-0.07,0.93-0.1,1.37-0.1c0.44,0,0.9-0.03,1.37-0.1c2.36-0.13,4.56-0.3,6.59-0.51
	c2.03-0.2,4.22-0.54,6.59-1.01c-0.54-2.5-1.13-5.05-1.77-7.65c-0.64-2.6-1.34-5.22-2.08-7.86l-0.51,1.01
	c-1.69,1.83-3.31,3.79-4.87,5.88c-1.56,2.1-2.84,4.09-3.85,5.98L160.08,41.44z"/>
<path d="M207.12,39.31c-0.34-1.89-0.44-3.85-0.3-5.88c0.13-2.03,0.2-3.99,0.2-5.88c0-1.83-0.12-3.77-0.35-5.83
	c-0.24-2.06-0.44-4.04-0.61-5.93c-0.17-1.89-0.24-3.63-0.2-5.22c0.03-1.59,0.25-2.82,0.66-3.7c0.54-1.01,1.22-1.81,2.03-2.38
	c0.81-0.57,1.59-1.23,2.33-1.98c0.88,0.14,1.67,0.39,2.38,0.76c0.71,0.37,1.32,0.85,1.82,1.42c0.51,0.58,0.88,1.17,1.12,1.77
	c0.24,0.61,0.29,1.22,0.15,1.83c1.69,1.01,3.06,2.38,4.11,4.11c1.05,1.72,1.86,3.62,2.43,5.68c0.57,2.06,0.98,4.24,1.22,6.54
	c0.24,2.3,0.44,4.56,0.61,6.79c0.17,2.23,0.34,4.34,0.51,6.34c0.17,1.99,0.49,3.74,0.96,5.22c2.97-4.32,5.49-8.16,7.55-11.51
	c2.06-3.35,4.14-6.55,6.23-9.63c2.09-3.07,4.44-6.2,7.05-9.38c2.6-3.18,5.93-6.76,9.99-10.75c0.88,0.14,1.55,0.3,2.03,0.51
	c0.47,0.2,0.95,0.41,1.42,0.61c0.47,0.2,0.98,0.35,1.52,0.46c0.54,0.1,1.28,0.09,2.23-0.05c0.34,0.81,0.59,1.4,0.76,1.77
	c0.17,0.37,0.32,0.73,0.46,1.06c0.13,0.34,0.3,0.78,0.51,1.32c0.2,0.54,0.51,1.35,0.91,2.43c0.2,0.27,0.29,0.63,0.25,1.06
	c-0.04,0.44-0.09,0.83-0.15,1.17c-0.07,0.34-0.09,0.61-0.05,0.81c0.03,0.2,0.25,0.2,0.66,0c-0.27,1.15-0.71,2.18-1.32,3.09
	s-0.88,2.01-0.81,3.29c-1.82,2.43-3.85,4.93-6.08,7.5c-2.23,2.57-4.46,5.26-6.69,8.06c-2.23,2.81-4.38,5.71-6.44,8.72
	c-2.06,3.01-3.8,6.2-5.22,9.58c-0.41,0-0.71,0.1-0.91,0.3s-0.39,0.44-0.56,0.71c-0.17,0.27-0.34,0.54-0.51,0.81
	c-0.17,0.27-0.46,0.41-0.86,0.41c-0.14,2.16-0.93,4.21-2.38,6.13c-1.45,1.93-2.92,3.57-4.41,4.92c0.13,0.54,0.2,0.98,0.2,1.32
	c0,0.34-0.04,0.68-0.1,1.01c-0.07,0.34-0.12,0.69-0.15,1.06c-0.04,0.37-0.02,0.83,0.05,1.37c-0.61,1.62-1.4,2.97-2.38,4.05
	c-0.98,1.08-2.04,1.89-3.19,2.43c-1.15,0.54-2.33,0.76-3.55,0.66c-1.22-0.1-2.37-0.52-3.45-1.27c-0.47-0.27-0.88-0.64-1.22-1.12
	c-0.34-0.47-0.69-0.93-1.06-1.37c-0.37-0.44-0.74-0.84-1.12-1.22c-0.37-0.37-0.83-0.62-1.37-0.76c0.13-0.67,0.15-1.38,0.05-2.13
	c-0.1-0.74-0.25-1.42-0.46-2.03s-0.44-1.12-0.71-1.52c-0.27-0.41-0.54-0.61-0.81-0.61c-0.27-1.69-0.63-3.53-1.06-5.53
	c-0.44-1.99-0.88-3.97-1.32-5.93c-0.44-1.96-0.79-3.89-1.06-5.78c-0.27-1.89-0.37-3.65-0.3-5.27c0.07-0.81-0.09-1.54-0.46-2.18
	C207.51,40.95,207.26,40.19,207.12,39.31z"/>
<path d="M265.41,73.98c-0.54-0.54-0.93-1.18-1.17-1.93c-0.24-0.74-0.79-1.35-1.67-1.83c-0.14-1.01-0.32-2.18-0.56-3.5
	c-0.24-1.32-0.47-2.67-0.71-4.05c-0.24-1.38-0.41-2.77-0.51-4.16c-0.1-1.38-0.05-2.65,0.15-3.8c0.13-0.61,0.35-1.18,0.66-1.72
	c0.3-0.54,0.61-1.06,0.91-1.57c0.3-0.51,0.54-1.03,0.71-1.57c0.17-0.54,0.19-1.08,0.05-1.62c0.41-0.07,0.66-0.29,0.76-0.66
	c0.1-0.37,0.42-0.49,0.96-0.35c0.47-1.49,0.98-2.87,1.52-4.16c0.54-1.28,1.11-2.53,1.72-3.75c0.61-1.22,1.23-2.45,1.88-3.7
	c0.64-1.25,1.23-2.65,1.77-4.21c-1.15-1.08-1.98-2.25-2.48-3.5c-0.51-1.25-0.9-2.52-1.17-3.8c-0.27-1.28-0.47-2.58-0.61-3.9
	c-0.14-1.32-0.41-2.65-0.81-4c0.81-1.22,1.79-2.21,2.94-2.99c1.15-0.78,2.42-1.42,3.8-1.93c1.38-0.51,2.89-0.91,4.51-1.22
	c1.62-0.3,3.34-0.66,5.17-1.06c3.24-1.01,6.15-1.81,8.72-2.38c2.57-0.57,5.07-1.05,7.5-1.42c2.43-0.37,4.97-0.71,7.6-1.01
	c2.64-0.3,5.68-0.76,9.12-1.37c0.07,0.2,0.19,0.3,0.36,0.3c0.17,0,0.39,0,0.66,0c0.2,0.47,0.57,0.71,1.11,0.71
	c0-0.2-0.02-0.39-0.05-0.56c-0.04-0.17-0.05-0.32-0.05-0.46c0.13,0,0.32,0.03,0.56,0.1c0.24,0.07,0.44,0.14,0.61,0.2
	c0.17,0.07,0.32,0.05,0.46-0.05c0.13-0.1,0.17-0.32,0.1-0.66c0.81,1.42,1.86,2.58,3.14,3.5c1.28,0.91,2.7,1.71,4.26,2.38
	c0.07,0.61,0.08,1.05,0.05,1.32c-0.03,0.27-0.08,0.52-0.15,0.76c-0.07,0.24-0.1,0.51-0.1,0.81s0.07,0.73,0.2,1.27
	c-1.08,1.82-2.32,3.24-3.7,4.26c-1.39,1.01-2.86,1.79-4.41,2.33c-1.56,0.54-3.19,0.95-4.92,1.22c-1.72,0.27-3.48,0.56-5.27,0.86
	c-1.79,0.3-3.6,0.73-5.42,1.27c-1.83,0.54-3.62,1.35-5.37,2.43c-0.54-0.2-1.03-0.29-1.47-0.25c-0.44,0.03-0.9,0.12-1.37,0.25
	c-0.47,0.14-1,0.27-1.57,0.41c-0.58,0.14-1.27,0.14-2.08,0c-0.54,0.47-1.17,0.81-1.88,1.01c-0.71,0.2-1.44,0.41-2.18,0.61
	c0.34,0.74,0.49,1.49,0.46,2.23c-0.04,0.74,0.05,1.39,0.25,1.93c2.84,0.27,5.98,0.25,9.43-0.05c3.45-0.3,6.83-0.52,10.14-0.66
	c0.07,0.34,0.03,0.58-0.1,0.71c-0.14,0.14-0.2,0.37-0.2,0.71c0.61,0.41,1.18,0.91,1.72,1.52c0.54,0.61,1.1,1.2,1.67,1.77
	c0.57,0.57,1.17,1.05,1.77,1.42c0.61,0.37,1.32,0.52,2.13,0.46c0.34,0.68,0.57,1.39,0.71,2.13c0.13,0.74,0.03,1.52-0.3,2.33
	c-1.35,0.88-2.67,1.77-3.95,2.69c-1.28,0.91-2.62,1.74-4,2.48c-1.39,0.74-2.89,1.35-4.51,1.82c-1.62,0.47-3.38,0.68-5.27,0.61
	c-0.34,0-0.63,0-0.86,0c-0.24,0-0.52-0.13-0.86-0.41c-0.68,0.34-1.57,0.46-2.69,0.35c-1.12-0.1-2.04,0.02-2.79,0.35
	c-0.95-0.34-2.04-0.51-3.29-0.51c-1.25,0-2.35-0.17-3.29-0.51c-1.22,1.76-2.37,3.6-3.45,5.53c-1.08,1.93-2.03,3.97-2.84,6.13
	c2.77,0.41,5.07,0.58,6.89,0.51c1.82-0.07,3.55-0.2,5.17-0.41c1.62-0.2,3.29-0.41,5.02-0.61c1.72-0.2,3.83-0.27,6.34-0.2
	c1.69-0.81,3.63-1.37,5.83-1.67c2.2-0.3,4.24-0.76,6.13-1.37c0.67,0.2,1.25,0.59,1.72,1.17c0.47,0.57,0.93,1.15,1.37,1.72
	c0.44,0.58,0.89,1.06,1.37,1.47c0.47,0.41,1.08,0.54,1.83,0.41c0.34,0.34,0.56,0.74,0.66,1.22c0.1,0.47,0.2,0.91,0.3,1.32
	s0.25,0.73,0.46,0.96c0.2,0.24,0.57,0.32,1.12,0.25c-1.29,2.64-2.72,4.66-4.31,6.08c-1.59,1.42-3.38,2.52-5.37,3.29
	c-1.99,0.78-4.22,1.35-6.69,1.72c-2.47,0.37-5.22,0.83-8.26,1.37c-0.74,0.14-1.37,0.12-1.88-0.05c-0.51-0.17-1.03-0.25-1.57-0.25
	c-1.89,0.34-4.14,0.67-6.74,1.01c-2.6,0.34-5.22,0.47-7.86,0.41c-2.64-0.07-5.17-0.41-7.6-1.01
	C269.06,76.62,267.03,75.54,265.41,73.98z"/>
<path class="st0" d="M372.37,78.85c-0.68,0-1.72-0.1-3.14-0.3c-1.08-1.15-2.04-2.72-2.89-4.71c-0.85-1.99-1.49-4.12-1.93-6.39
	c-0.44-2.26-0.64-4.53-0.61-6.79c0.03-2.26,0.42-4.27,1.17-6.03c0-0.07,0.32-0.88,0.96-2.43c0.64-1.55,1.47-3.53,2.48-5.93
	c1.01-2.4,2.16-5.07,3.45-8.01c1.28-2.94,2.57-5.83,3.85-8.67c1.28-2.84,2.52-5.42,3.7-7.76c1.18-2.33,2.21-4.14,3.09-5.42
	c0.61-0.95,1.17-1.86,1.67-2.74c0.51-0.88,1-1.69,1.47-2.43c0.74-1.22,1.44-2.35,2.08-3.4c0.64-1.05,1.35-1.99,2.13-2.84
	c0.78-0.84,1.64-1.59,2.58-2.23c0.95-0.64,2.09-1.2,3.45-1.67c0.81,0.34,1.52,0.69,2.13,1.06c0.61,0.37,1.15,0.83,1.62,1.37
	l0.3,1.42c0.13,0.47,0.36,0.8,0.66,0.96c0.3,0.17,0.56,0.25,0.76,0.25c0.88,0.2,1.64,0.42,2.28,0.66c0.64,0.24,1.33,0.39,2.08,0.46
	c0.27,0.41,0.52,0.81,0.76,1.22c0.24,0.41,0.49,0.78,0.76,1.12c1.35,1.96,2.47,3.85,3.34,5.68c0.88,1.83,0.88,3.82,0,5.98l0.1,1.12
	c0.34,0.47,0.51,0.91,0.51,1.32c0,0.41-0.07,0.98-0.2,1.72c-0.07,0.54-0.12,1.13-0.15,1.77c-0.04,0.64,0.05,1.34,0.25,2.08
	l0.71,0.81c1.08,0.54,2.13,0.81,3.14,0.81c1.35,0,2.57-0.3,3.65-0.91c1.08-0.61,2.09-1.22,3.04-1.82c0.74-0.54,1.43-0.98,2.08-1.32
	c0.64-0.34,1.27-0.57,1.88-0.71c1.42-1.35,2.72-2.55,3.9-3.6c1.18-1.05,2.42-2.11,3.7-3.19c2.43-1.96,4.8-4.07,7.1-6.34
	c2.3-2.26,4.12-5.08,5.47-8.46c0.74-0.47,1.59-0.71,2.53-0.71c0.95,0,1.89,0.19,2.84,0.56c0.95,0.37,1.89,0.8,2.84,1.27
	c0.2,0.14,0.39,0.24,0.56,0.3c0.17,0.07,0.36,0.17,0.56,0.3c0,0.74,0.3,1.42,0.91,2.03c0.34,0.27,0.57,0.44,0.71,0.51
	c0.13,0.07,0.27,0.14,0.41,0.2c0.54,0.34,1,0.64,1.37,0.91c0.37,0.27,0.66,0.64,0.86,1.11c0.61,1.83,1.62,3.24,3.04,4.26
	c-0.14,0.74-0.1,1.47,0.1,2.18c0.2,0.71,0.44,1.4,0.71,2.08c0.13,0.27,0.24,0.52,0.3,0.76c0.07,0.24,0.17,0.52,0.3,0.86l-2.23-0.2
	l0.3,2.23c0.2,1.15,0.12,2.43-0.25,3.85c-0.37,1.42-0.79,2.53-1.27,3.35c0.13,2.03,0.2,3.63,0.2,4.82c0,1.18-0.07,2.28-0.2,3.29
	c-0.14,1.01-0.35,1.98-0.66,2.89c-0.3,0.91-0.69,1.88-1.17,2.89c0.27,5.14-0.32,9.83-1.77,14.09c-1.45,4.26-3.03,8.25-4.71,11.96
	c-0.2,0.47-0.41,0.91-0.61,1.32s-0.37,0.81-0.51,1.22c-0.74,0.2-1.42,0.44-2.03,0.71c-0.61,0.27-1.18,0.58-1.72,0.91
	c-0.74,0.47-1.49,0.86-2.23,1.17c-0.74,0.3-1.52,0.46-2.33,0.46c-3.24-2.36-4.92-6.45-5.02-12.27c-0.1-5.81,1.13-13.21,3.7-22.2
	c0.47-0.34,0.67-0.84,0.61-1.52V39l-1.01-0.1c-0.34,0-0.64,0.03-0.91,0.1c-0.27,0.07-0.47,0.37-0.61,0.91
	c-2.16,1.56-4.51,3.16-7.05,4.82c-2.53,1.66-5.15,3.18-7.86,4.56c-2.7,1.39-5.46,2.53-8.26,3.45c-2.81,0.91-5.53,1.37-8.16,1.37
	c-6.76,0-11.86-3.45-15.31-10.34l-0.91-1.82l-1.01,1.62c-0.2,0.34-0.56,1-1.06,1.98c-0.51,0.98-1.01,2.11-1.52,3.4
	c-0.51,1.28-0.95,2.6-1.32,3.95c-0.37,1.35-0.49,2.53-0.36,3.55c-0.81,0.75-1.61,1.59-2.38,2.54c-0.78,0.95-1.34,2.03-1.67,3.24
	c-0.14,0.34-0.17,0.66-0.1,0.96c0.07,0.3,0.17,0.63,0.3,0.96c-0.07,0.47-0.2,0.81-0.41,1.01c-0.2,0.2-0.44,0.41-0.71,0.61
	c-0.34,0.34-0.68,0.69-1.01,1.06c-0.34,0.37-0.64,0.79-0.91,1.27c-0.14,0.41-0.24,0.83-0.3,1.27c-0.07,0.44-0.14,0.83-0.2,1.17
	c0,0.74-0.1,1.25-0.3,1.52c-0.68,1.42-1.27,2.58-1.77,3.5c-0.51,0.91-1,1.61-1.47,2.08c-0.47,0.47-0.96,0.79-1.47,0.96
	C373.63,78.76,373.04,78.85,372.37,78.85z"/>
<path class="st0" d="M469.99,73.98c-0.54-0.54-0.93-1.18-1.17-1.93c-0.24-0.74-0.8-1.35-1.67-1.83c-0.14-1.01-0.32-2.18-0.56-3.5
	c-0.24-1.32-0.47-2.67-0.71-4.05c-0.24-1.38-0.41-2.77-0.51-4.16c-0.1-1.38-0.05-2.65,0.15-3.8c0.13-0.61,0.35-1.18,0.66-1.72
	c0.3-0.54,0.61-1.06,0.91-1.57c0.3-0.51,0.54-1.03,0.71-1.57c0.17-0.54,0.19-1.08,0.05-1.62c0.41-0.07,0.66-0.29,0.76-0.66
	c0.1-0.37,0.42-0.49,0.96-0.35c0.47-1.49,0.98-2.87,1.52-4.16c0.54-1.28,1.12-2.53,1.72-3.75c0.61-1.22,1.23-2.45,1.88-3.7
	c0.64-1.25,1.23-2.65,1.77-4.21c-1.15-1.08-1.98-2.25-2.48-3.5c-0.51-1.25-0.9-2.52-1.17-3.8c-0.27-1.28-0.47-2.58-0.61-3.9
	c-0.14-1.32-0.41-2.65-0.81-4c0.81-1.22,1.79-2.21,2.94-2.99c1.15-0.78,2.42-1.42,3.8-1.93c1.38-0.51,2.89-0.91,4.51-1.22
	s3.34-0.66,5.17-1.06c3.24-1.01,6.15-1.81,8.72-2.38c2.57-0.57,5.07-1.05,7.5-1.42c2.43-0.37,4.97-0.71,7.6-1.01
	c2.64-0.3,5.68-0.76,9.12-1.37c0.07,0.2,0.19,0.3,0.36,0.3c0.17,0,0.39,0,0.66,0c0.2,0.47,0.57,0.71,1.11,0.71
	c0-0.2-0.02-0.39-0.05-0.56c-0.04-0.17-0.05-0.32-0.05-0.46c0.13,0,0.32,0.03,0.56,0.1c0.24,0.07,0.44,0.14,0.61,0.2
	c0.17,0.07,0.32,0.05,0.46-0.05c0.13-0.1,0.17-0.32,0.1-0.66c0.81,1.42,1.86,2.58,3.14,3.5c1.28,0.91,2.7,1.71,4.26,2.38
	c0.07,0.61,0.08,1.05,0.05,1.32c-0.03,0.27-0.08,0.52-0.15,0.76c-0.07,0.24-0.1,0.51-0.1,0.81s0.07,0.73,0.2,1.27
	c-1.08,1.82-2.32,3.24-3.7,4.26c-1.39,1.01-2.86,1.79-4.41,2.33c-1.56,0.54-3.19,0.95-4.92,1.22c-1.72,0.27-3.48,0.56-5.27,0.86
	c-1.79,0.3-3.6,0.73-5.42,1.27c-1.83,0.54-3.62,1.35-5.37,2.43c-0.54-0.2-1.03-0.29-1.47-0.25c-0.44,0.03-0.9,0.12-1.37,0.25
	c-0.47,0.14-1,0.27-1.57,0.41c-0.58,0.14-1.27,0.14-2.08,0c-0.54,0.47-1.17,0.81-1.88,1.01c-0.71,0.2-1.44,0.41-2.18,0.61
	c0.34,0.74,0.49,1.49,0.46,2.23c-0.04,0.74,0.05,1.39,0.25,1.93c2.84,0.27,5.98,0.25,9.43-0.05c3.45-0.3,6.83-0.52,10.14-0.66
	c0.07,0.34,0.03,0.58-0.1,0.71c-0.14,0.14-0.2,0.37-0.2,0.71c0.61,0.41,1.18,0.91,1.72,1.52c0.54,0.61,1.1,1.2,1.67,1.77
	c0.57,0.57,1.17,1.05,1.77,1.42c0.61,0.37,1.32,0.52,2.13,0.46c0.34,0.68,0.57,1.39,0.71,2.13c0.13,0.74,0.03,1.52-0.3,2.33
	c-1.35,0.88-2.67,1.77-3.95,2.69c-1.28,0.91-2.62,1.74-4,2.48c-1.39,0.74-2.89,1.35-4.51,1.82c-1.62,0.47-3.38,0.68-5.27,0.61
	c-0.34,0-0.63,0-0.86,0c-0.24,0-0.52-0.13-0.86-0.41c-0.68,0.34-1.57,0.46-2.69,0.35c-1.12-0.1-2.04,0.02-2.79,0.35
	c-0.95-0.34-2.04-0.51-3.29-0.51c-1.25,0-2.35-0.17-3.29-0.51c-1.22,1.76-2.37,3.6-3.45,5.53c-1.08,1.93-2.03,3.97-2.84,6.13
	c2.77,0.41,5.07,0.58,6.89,0.51c1.82-0.07,3.55-0.2,5.17-0.41c1.62-0.2,3.29-0.41,5.02-0.61c1.72-0.2,3.83-0.27,6.34-0.2
	c1.69-0.81,3.63-1.37,5.83-1.67c2.2-0.3,4.24-0.76,6.13-1.37c0.67,0.2,1.25,0.59,1.72,1.17c0.47,0.57,0.93,1.15,1.37,1.72
	c0.44,0.58,0.89,1.06,1.37,1.47c0.47,0.41,1.08,0.54,1.83,0.41c0.34,0.34,0.56,0.74,0.66,1.22c0.1,0.47,0.2,0.91,0.3,1.32
	s0.25,0.73,0.46,0.96c0.2,0.24,0.57,0.32,1.12,0.25c-1.29,2.64-2.72,4.66-4.31,6.08c-1.59,1.42-3.38,2.52-5.37,3.29
	c-1.99,0.78-4.22,1.35-6.69,1.72c-2.47,0.37-5.22,0.83-8.26,1.37c-0.74,0.14-1.37,0.12-1.88-0.05c-0.51-0.17-1.03-0.25-1.57-0.25
	c-1.89,0.34-4.14,0.67-6.74,1.01c-2.6,0.34-5.22,0.47-7.86,0.41s-5.17-0.41-7.6-1.01C473.64,76.62,471.61,75.54,469.99,73.98z"/>
</svg>
